<svg xmlns="http://www.w3.org/2000/svg" width="1024" height="1024" viewBox="0 0 1024 1024">
<g>
<path d="M 359.64 775.50 C358.53,778.39 352.00,776.98 352.00,773.85 C352.00,772.34 351.54,772.01 350.05,772.49 C348.94,772.84 347.01,772.39 345.59,771.47 C344.08,770.48 342.27,770.10 341.00,770.50 C339.85,770.87 338.36,770.75 337.70,770.25 C337.04,769.74 333.69,769.37 330.25,769.41 C326.81,769.46 324.00,769.24 324.00,768.92 C324.00,768.19 312.23,766.00 308.29,766.00 C304.95,766.00 300.92,762.59 303.19,761.68 C304.08,761.33 303.97,761.13 302.83,761.08 C301.92,761.04 300.96,760.44 300.71,759.75 C300.34,758.75 299.98,758.75 298.92,759.75 C297.14,761.43 294.53,761.32 290.82,759.41 C288.27,758.09 287.59,758.04 286.88,759.16 C286.17,760.28 286.03,760.27 286.02,759.13 C286.01,758.26 285.28,757.96 284.00,758.29 C282.90,758.58 282.25,758.41 282.56,757.91 C282.87,757.41 282.47,757.00 281.68,757.00 C280.88,757.00 280.00,756.10 279.71,755.00 C279.42,753.90 278.67,753.00 278.03,753.00 C277.40,753.00 277.19,753.49 277.56,754.10 C278.03,754.86 277.59,754.85 276.10,754.05 C274.92,753.42 273.45,753.22 272.82,753.61 C272.13,754.04 271.97,753.86 272.40,753.15 C273.08,752.06 270.56,751.48 267.15,751.95 C266.41,752.05 266.10,751.65 266.46,751.07 C266.82,750.48 266.67,750.00 266.12,750.00 C265.57,750.00 265.29,749.11 265.50,748.01 C266.09,744.92 263.38,742.98 258.67,743.12 C253.21,743.29 250.77,742.66 250.07,740.88 C248.75,737.52 245.93,734.66 243.79,734.50 C242.25,734.39 241.46,733.67 241.39,732.31 C241.26,729.87 237.33,725.66 236.47,727.05 C236.13,727.59 235.33,727.70 234.68,727.29 C234.03,726.89 232.83,726.46 232.02,726.33 C231.20,726.21 230.38,725.63 230.18,725.05 C229.99,724.46 229.44,724.23 228.96,724.52 C228.49,724.82 227.58,724.09 226.95,722.91 C226.07,721.26 226.08,720.93 226.98,721.49 C227.68,721.92 227.51,720.96 226.57,719.14 C225.70,717.45 225.10,715.65 225.24,715.14 C225.75,713.34 220.75,709.95 218.58,710.61 C217.44,710.96 216.82,710.91 217.21,710.50 C217.60,710.08 217.28,708.51 216.50,706.99 C215.02,704.15 212.50,702.52 210.15,702.91 C209.41,703.03 209.08,702.68 209.42,702.12 C210.03,701.14 206.30,697.00 202.10,694.00 C200.95,693.17 199.85,691.40 199.66,690.05 C199.43,688.40 198.46,687.37 196.72,686.90 C195.29,686.52 193.87,686.46 193.56,686.77 C193.25,687.08 192.95,686.70 192.88,685.92 C192.82,685.14 192.70,683.83 192.61,683.00 C192.53,682.17 192.79,680.49 193.20,679.25 C193.66,677.89 193.54,677.00 192.92,677.00 C192.35,677.00 192.10,676.64 192.38,676.20 C193.14,674.97 191.79,673.45 188.50,671.84 C186.85,671.03 185.63,669.79 185.79,669.08 C185.94,668.37 185.55,667.16 184.91,666.39 C184.28,665.63 184.15,665.00 184.63,665.00 C185.11,665.00 185.50,663.87 185.50,662.49 C185.50,660.95 185.04,660.16 184.30,660.44 C183.62,660.70 183.32,660.33 183.61,659.58 C184.21,658.00 181.23,654.74 179.92,655.55 C179.41,655.86 179.00,655.64 179.00,655.06 C179.00,654.48 178.21,653.99 177.25,653.98 C176.22,653.98 175.93,653.67 176.54,653.23 C177.11,652.83 177.51,650.03 177.42,647.00 C177.18,638.49 177.08,637.98 175.75,638.25 C175.06,638.39 174.62,637.90 174.77,637.18 C174.93,636.45 174.64,636.11 174.13,636.42 C173.26,636.96 169.86,632.73 170.07,631.37 C170.13,631.02 169.61,630.38 168.93,629.95 C167.94,629.34 167.95,628.54 168.98,626.05 C170.00,623.60 170.02,622.34 169.10,620.32 C168.45,618.90 167.90,614.87 167.87,611.37 C167.85,607.87 167.46,605.00 167.01,605.00 C166.57,605.00 166.20,603.34 166.20,601.31 C166.20,598.88 165.57,597.16 164.35,596.27 C162.84,595.16 162.76,594.77 163.90,594.06 C164.87,593.46 165.12,592.11 164.71,589.62 C164.39,587.65 164.55,585.78 165.07,585.46 C166.20,584.76 166.32,579.00 165.20,579.00 C164.76,579.00 164.59,577.43 164.81,575.51 C165.03,573.59 165.62,572.26 166.11,572.57 C166.60,572.87 166.99,571.63 166.98,569.81 C166.97,567.30 166.73,566.86 166.00,568.00 C165.19,569.25 165.03,569.19 165.02,567.58 C165.01,566.53 164.70,565.96 164.34,566.33 C163.98,566.69 163.13,566.20 162.46,565.24 C161.02,563.17 160.64,548.00 162.04,548.00 C162.57,548.00 163.00,546.85 163.00,545.44 C163.00,543.99 162.57,543.15 162.00,543.50 C161.36,543.89 161.00,541.18 161.00,536.06 C161.00,531.35 161.42,528.00 162.00,528.00 C162.55,528.00 163.00,526.40 163.00,524.44 C163.00,522.32 162.60,521.13 162.00,521.50 C161.34,521.91 161.00,514.18 161.00,499.06 C161.00,484.35 161.36,476.00 162.00,476.00 C163.30,476.00 163.31,470.31 162.01,469.51 C160.77,468.74 160.85,453.00 162.09,453.00 C162.59,453.00 163.00,451.88 163.00,450.50 C163.00,449.12 162.55,448.00 162.00,448.00 C161.41,448.00 161.05,444.84 161.13,440.25 C161.23,434.20 161.43,433.27 162.00,436.00 C162.45,438.13 162.79,433.37 162.87,423.81 C162.95,414.28 162.61,407.88 162.00,407.50 C160.70,406.70 160.70,401.30 162.00,400.50 C163.36,399.66 163.26,393.40 161.85,391.13 C160.97,389.72 161.02,388.58 162.06,386.22 C162.81,384.53 163.78,383.36 164.21,383.63 C165.41,384.37 165.15,381.22 163.85,379.13 C162.99,377.75 162.99,376.48 163.86,373.99 C164.84,371.16 164.72,370.19 163.00,367.28 C161.47,364.68 161.00,362.09 161.00,356.26 C161.00,349.07 162.54,342.00 164.11,342.00 C164.50,342.00 164.60,340.76 164.33,339.25 C164.07,337.74 163.68,334.61 163.49,332.30 C163.29,330.00 162.66,327.22 162.08,326.14 C161.30,324.69 161.43,323.22 162.58,320.46 C163.74,317.69 163.96,315.13 163.45,310.37 C163.07,306.87 162.37,304.00 161.88,304.00 C160.34,304.00 160.89,294.78 162.54,292.96 C164.65,290.62 165.87,274.16 164.02,273.01 C163.12,272.45 162.78,269.92 162.90,264.65 C163.00,260.10 162.58,256.31 161.84,255.12 C160.88,253.58 160.87,252.57 161.81,250.53 C162.46,249.09 163.00,246.38 163.00,244.52 C163.00,241.88 163.49,240.98 165.25,240.45 C166.49,240.07 168.18,239.20 169.00,238.52 C170.12,237.59 173.44,237.44 182.00,237.94 C188.32,238.31 196.88,238.26 201.00,237.83 C210.17,236.87 301.07,237.22 302.59,238.21 C303.37,238.72 303.62,270.19 303.46,348.71 C303.34,409.10 303.56,467.50 303.96,478.50 C304.36,489.50 304.38,503.00 304.01,508.50 C303.64,514.00 303.64,521.65 304.00,525.50 C304.36,529.35 304.31,536.09 303.88,540.47 C303.44,544.86 303.42,550.03 303.82,551.97 C304.23,553.91 304.31,560.00 304.00,565.50 C303.70,571.00 303.84,576.19 304.33,577.03 C304.84,577.92 304.81,581.18 304.26,584.82 C303.74,588.26 303.67,591.30 304.11,591.57 C305.08,592.17 304.76,602.57 303.73,603.60 C302.63,604.71 302.85,607.21 304.00,606.50 C304.55,606.16 305.00,606.36 305.00,606.94 C305.00,607.52 305.90,608.00 307.00,608.00 C308.10,608.00 309.00,608.45 309.00,609.00 C309.00,609.55 309.70,610.00 310.56,610.00 C311.42,610.00 311.84,609.55 311.50,609.00 C311.16,608.45 311.57,608.00 312.41,608.00 C314.21,608.00 313.51,610.59 311.50,611.36 C310.53,611.73 310.25,613.47 310.50,617.53 C310.69,620.64 311.12,623.45 311.45,623.78 C312.05,624.38 314.35,625.01 316.71,625.23 C318.12,625.35 319.25,627.79 318.47,629.05 C317.46,630.68 321.76,633.91 324.32,633.45 C326.53,633.05 326.73,633.30 326.47,636.25 C326.11,640.44 327.55,642.31 330.09,640.95 C331.55,640.17 332.36,640.39 333.69,641.95 C334.99,643.46 335.63,643.66 336.30,642.73 C336.93,641.86 337.04,641.97 336.69,643.09 C335.81,645.87 337.67,647.31 343.16,648.12 C351.89,649.40 362.38,649.77 364.19,648.85 C365.21,648.34 366.13,648.40 366.51,649.02 C366.92,649.69 372.39,649.83 382.32,649.42 C406.57,648.44 408.46,648.44 409.23,649.50 C409.69,650.12 409.98,650.02 409.98,649.25 C409.99,648.56 410.61,648.00 411.35,648.00 C413.18,648.00 416.19,644.54 415.25,643.51 C414.84,643.05 415.02,642.97 415.65,643.33 C416.28,643.69 417.05,643.32 417.36,642.49 C417.69,641.63 419.19,641.00 420.90,641.00 C423.81,641.00 425.27,639.09 425.44,635.10 C425.47,634.33 426.17,633.56 427.00,633.38 C427.83,633.21 429.29,632.92 430.26,632.73 C431.23,632.54 432.58,631.78 433.26,631.04 C434.11,630.12 434.13,629.91 433.32,630.37 C432.58,630.79 432.71,629.89 433.67,627.95 C434.54,626.21 435.77,625.08 436.49,625.36 C437.19,625.63 438.72,625.18 439.89,624.37 C441.45,623.27 441.77,622.44 441.10,621.19 C440.61,620.26 440.43,617.53 440.71,615.13 C441.04,612.24 440.79,610.49 439.98,609.98 C439.09,609.44 439.48,608.73 441.32,607.52 C442.75,606.59 444.39,606.12 444.98,606.49 C445.57,606.85 445.99,606.78 445.91,606.32 C445.83,605.87 445.85,604.83 445.95,604.00 C446.09,602.93 446.39,603.07 447.00,604.50 C447.79,606.33 447.86,606.29 447.90,604.00 C447.92,602.62 447.28,600.63 446.47,599.56 C444.79,597.34 444.52,595.58 446.00,596.50 C446.55,596.84 447.00,596.19 447.00,595.06 C447.00,593.93 447.56,592.99 448.25,592.98 C449.23,592.97 449.24,592.80 448.27,592.19 C447.59,591.76 446.75,588.50 446.41,584.95 C446.03,581.05 445.24,578.18 444.39,577.70 C442.79,576.78 442.51,572.42 444.00,571.50 C444.55,571.16 445.00,569.81 445.00,568.50 C445.00,567.19 444.55,565.84 444.00,565.50 C443.39,565.12 443.00,557.47 443.00,545.90 C443.00,528.52 443.15,526.94 444.71,527.21 C445.74,527.38 446.58,526.74 446.81,525.61 C447.12,524.11 446.76,523.83 445.10,524.26 L 443.00 524.81 L 443.00 432.06 C443.00,340.58 443.03,339.29 445.00,337.50 C447.43,335.30 447.50,334.21 445.35,331.83 C444.35,330.73 444.15,330.00 444.85,330.00 C446.52,330.00 446.26,325.46 444.50,324.00 C443.24,322.95 443.00,318.76 443.00,297.82 C443.00,281.45 443.34,273.09 444.00,273.50 C444.55,273.84 445.00,273.84 445.00,273.50 C445.00,273.16 445.48,269.78 446.07,265.98 C447.07,259.56 447.00,258.91 445.07,256.85 C443.43,255.08 443.00,253.31 443.00,248.26 C443.00,242.68 443.31,241.64 445.56,239.70 L 448.12 237.50 L 500.31 237.77 C529.01,237.92 554.08,237.95 556.00,237.84 C565.07,237.30 598.98,237.61 602.82,238.26 C605.22,238.67 607.92,238.58 608.91,238.05 C610.08,237.42 611.06,237.46 611.75,238.15 C612.35,238.75 617.93,239.29 624.67,239.40 C631.19,239.50 637.14,239.97 637.89,240.43 C638.65,240.90 644.71,241.48 651.38,241.73 C663.19,242.16 665.39,242.81 664.33,245.58 C663.54,247.65 667.13,248.81 673.25,248.44 C677.23,248.21 679.00,248.47 679.02,249.30 C679.03,250.16 679.24,250.18 679.77,249.38 C680.17,248.77 681.85,248.43 683.50,248.63 C692.47,249.71 694.17,250.29 695.21,252.57 C696.32,254.99 702.00,257.77 702.00,255.89 C702.00,255.34 702.43,255.15 702.95,255.47 C703.47,255.79 705.52,256.12 707.49,256.19 C709.47,256.27 711.32,256.70 711.60,257.16 C711.89,257.62 713.39,258.00 714.95,258.00 C717.65,258.00 719.62,260.19 718.53,261.96 C718.26,262.38 719.01,263.58 720.20,264.62 C721.38,265.65 722.03,265.97 721.66,265.32 C721.28,264.67 721.42,263.86 721.98,263.51 C722.54,263.16 723.01,263.47 723.02,264.19 C723.03,265.14 723.30,265.09 724.00,264.00 C724.82,262.73 724.97,262.78 724.98,264.31 C724.99,265.30 725.34,265.92 725.75,265.69 C726.16,265.45 728.48,265.53 730.90,265.88 C734.58,266.40 735.37,266.90 735.68,268.94 C736.12,271.88 736.19,271.96 738.80,272.46 C739.94,272.68 741.77,273.34 742.86,273.93 C743.96,274.51 745.57,274.72 746.44,274.38 C747.57,273.95 748.33,274.65 749.10,276.85 C750.19,279.98 752.91,281.46 758.42,281.92 C758.92,281.97 759.07,282.26 758.75,282.59 C758.43,282.91 758.61,284.46 759.16,286.03 C759.93,288.24 760.87,288.95 763.33,289.19 C765.95,289.45 766.46,289.89 766.26,291.75 C766.13,292.99 766.49,294.00 767.07,294.00 C767.65,294.00 767.84,294.45 767.50,295.00 C767.16,295.55 767.25,296.03 767.69,296.07 C768.14,296.10 770.08,296.42 772.00,296.76 C773.92,297.10 777.64,297.33 780.25,297.26 C782.86,297.19 785.00,297.31 785.00,297.52 C785.00,297.73 784.46,299.10 783.79,300.56 C782.76,302.82 782.84,303.41 784.29,304.47 C785.23,305.16 787.09,305.51 788.42,305.26 C790.55,304.85 790.81,305.13 790.55,307.46 C790.39,308.92 790.86,310.71 791.58,311.44 C792.31,312.17 792.59,313.11 792.20,313.53 C791.82,313.95 792.35,313.84 793.39,313.28 C795.90,311.93 798.87,312.79 798.84,314.85 C798.81,316.96 799.78,321.11 800.47,321.80 C800.76,322.09 801.00,321.79 801.00,321.13 C801.00,320.31 801.55,320.21 802.75,320.83 C803.71,321.32 805.06,321.53 805.75,321.28 C806.44,321.03 807.05,321.65 807.11,322.67 C807.40,327.81 807.60,328.50 808.75,328.62 C809.44,328.69 810.22,328.86 810.50,329.00 C811.16,329.33 812.74,329.72 814.04,329.88 C814.62,329.94 814.98,330.56 814.85,331.25 C814.50,333.07 815.98,336.98 817.07,337.12 C818.98,337.38 819.54,337.58 821.27,338.58 C823.70,339.99 824.54,343.65 823.69,349.22 C823.47,350.72 823.67,351.71 824.14,351.41 C824.61,351.12 825.00,351.26 825.00,351.73 C825.00,352.19 825.94,352.64 827.08,352.73 C829.95,352.95 832.21,355.02 831.52,356.80 C830.97,358.24 834.40,361.48 836.50,361.49 C837.05,361.50 838.11,363.41 838.84,365.75 C839.58,368.09 840.58,370.00 841.06,370.00 C841.54,370.00 841.70,370.63 841.40,371.40 C841.11,372.17 841.35,373.10 841.95,373.47 C842.54,373.84 842.77,374.56 842.46,375.07 C842.14,375.58 842.35,376.00 842.92,376.00 C844.77,376.00 847.13,380.75 847.47,385.18 C847.94,391.33 848.72,392.69 852.18,393.39 C854.71,393.89 855.14,394.37 854.67,396.15 C854.36,397.34 854.74,399.53 855.51,401.03 C856.29,402.52 856.68,403.99 856.38,404.29 C855.01,405.66 858.32,408.97 861.68,409.60 C865.05,410.23 865.19,410.39 863.47,411.64 C862.45,412.39 862.08,413.00 862.65,413.00 C863.32,413.00 863.42,414.68 862.95,417.75 C862.53,420.49 862.62,423.00 863.17,423.68 C863.77,424.41 863.79,426.12 863.22,428.18 C862.50,430.81 862.67,431.87 864.01,433.27 C865.05,434.36 865.53,436.01 865.24,437.52 C864.98,438.89 865.16,440.04 865.63,440.08 C872.02,440.70 872.57,441.05 871.19,443.66 C869.44,446.99 871.09,459.68 873.11,458.43 C873.60,458.13 874.00,458.33 874.00,458.88 C874.00,459.43 873.61,460.12 873.13,460.42 C872.10,461.05 872.86,465.80 874.12,466.57 C874.60,466.87 875.00,467.57 875.00,468.12 C875.00,468.67 874.55,468.84 874.00,468.50 C872.06,467.30 873.03,471.29 875.13,473.11 C877.16,474.88 877.18,475.09 875.63,478.38 C873.35,483.17 873.60,486.27 876.50,489.41 C878.92,492.02 880.02,495.75 878.00,494.50 C877.37,494.11 877.00,496.34 877.00,500.50 C877.00,504.66 876.63,506.89 876.00,506.50 C874.84,505.78 874.55,509.42 874.94,519.75 C875.14,524.98 874.87,527.00 873.98,527.00 C873.15,527.00 872.94,527.96 873.34,529.96 C873.67,531.59 873.50,533.19 872.96,533.52 C872.34,533.91 872.35,534.79 873.00,535.99 C874.32,538.46 874.27,539.28 872.84,538.40 C871.99,537.88 871.86,539.18 872.35,543.34 C872.79,547.06 872.66,549.00 871.96,549.00 C871.35,549.00 871.00,550.86 871.14,553.48 C871.27,555.95 871.12,558.22 870.80,558.53 C870.49,558.84 870.58,560.63 871.00,562.51 C871.51,564.77 871.39,566.07 870.63,566.38 C869.85,566.70 869.91,567.14 870.86,567.80 C871.80,568.46 871.88,568.96 871.11,569.43 C870.50,569.81 870.00,569.59 870.00,568.94 C870.00,568.04 869.65,568.05 868.54,568.96 C867.74,569.63 866.62,569.88 866.04,569.53 C865.39,569.12 865.00,570.24 865.00,572.50 C865.00,574.49 865.42,575.86 865.94,575.54 C866.51,575.19 866.54,576.11 866.03,577.91 C865.56,579.52 865.48,581.18 865.84,581.59 C866.20,581.99 865.94,582.00 865.25,581.60 C864.39,581.11 864.00,581.68 864.00,583.44 C864.00,584.85 864.45,586.00 865.00,586.00 C866.77,586.00 866.06,588.85 864.14,589.46 C862.71,589.91 862.35,590.86 862.56,593.56 C862.76,596.11 862.25,597.62 860.68,599.08 C859.49,600.19 858.47,602.36 858.41,603.90 C858.35,605.45 857.98,607.23 857.59,607.85 C857.20,608.49 857.47,609.01 858.19,609.03 C859.13,609.05 859.05,609.41 857.91,610.28 C856.35,611.49 851.00,619.42 851.00,620.54 C851.00,620.86 851.45,620.84 852.00,620.50 C852.55,620.16 853.00,620.33 853.00,620.87 C853.00,621.42 852.01,622.18 850.80,622.56 C848.17,623.40 845.86,625.53 846.68,626.35 C847.00,626.67 847.40,628.10 847.55,629.52 C847.71,630.93 848.37,632.74 849.02,633.53 C850.77,635.63 846.06,641.17 843.66,639.83 C842.55,639.21 842.00,639.27 842.00,640.01 C842.00,640.62 841.60,640.87 841.11,640.57 C839.79,639.75 838.25,642.19 838.47,644.75 C838.58,645.99 838.18,647.03 837.58,647.08 C831.55,647.50 830.83,648.53 830.68,656.82 C830.61,660.68 830.18,663.61 829.72,663.33 C828.01,662.27 823.93,662.31 823.26,663.38 C822.87,664.00 822.55,665.85 822.53,667.50 C822.51,670.01 822.13,670.46 820.25,670.26 C818.25,670.05 817.53,670.95 817.87,673.21 C817.93,673.61 817.42,673.72 816.74,673.45 C815.85,673.11 815.51,674.46 815.55,678.24 C815.61,684.17 813.99,686.93 810.64,686.57 C807.71,686.24 806.52,687.75 806.39,692.00 C806.27,695.49 805.96,695.72 802.88,694.52 C801.07,693.81 797.65,696.63 798.56,698.09 C799.62,699.80 797.89,703.00 795.90,703.00 C794.03,703.00 789.18,709.51 789.75,711.25 C790.06,712.18 787.70,711.77 786.95,710.77 C786.65,710.36 785.41,710.73 784.20,711.57 C782.38,712.85 782.18,713.47 783.08,715.14 C783.67,716.26 784.01,717.26 783.83,717.37 C782.04,718.44 775.70,720.00 773.12,720.00 C771.22,720.00 770.14,720.41 770.50,721.00 C770.84,721.55 770.30,722.01 769.31,722.02 C767.89,722.03 767.80,722.22 768.88,722.90 C770.61,724.00 769.53,725.90 767.23,725.79 C763.41,725.62 760.01,727.68 759.98,730.18 C759.96,732.55 758.39,734.06 755.42,734.57 C753.81,734.85 751.60,735.37 750.50,735.74 C749.40,736.10 747.94,736.28 747.25,736.15 C746.56,736.02 746.00,736.63 746.00,737.52 C746.00,738.48 745.54,738.83 744.83,738.39 C744.05,737.91 743.87,738.22 744.29,739.32 C745.03,741.25 742.35,743.04 739.43,742.57 C738.37,742.40 736.96,742.69 736.30,743.21 C735.64,743.74 733.93,744.29 732.52,744.45 C729.11,744.82 728.60,745.47 728.08,750.18 C727.96,751.22 723.75,752.42 721.50,752.06 C715.33,751.07 712.00,752.10 712.00,754.99 C712.00,755.61 711.55,755.84 711.00,755.50 C710.45,755.16 710.00,755.58 710.00,756.44 C710.00,757.30 709.44,758.07 708.75,758.16 C708.06,758.24 706.15,758.49 704.50,758.71 C702.85,758.93 700.38,759.09 699.00,759.08 C697.62,759.07 695.21,759.06 693.63,759.05 C691.01,759.05 687.25,760.79 687.28,762.00 C687.29,762.28 686.96,763.55 686.55,764.83 C685.96,766.70 685.33,767.05 683.39,766.56 C680.49,765.83 667.88,768.00 668.57,769.11 C668.83,769.53 667.80,769.76 666.27,769.62 C664.75,769.47 662.86,769.83 662.09,770.43 C661.06,771.21 660.56,771.16 660.25,770.25 C660.02,769.56 659.23,769.00 658.50,769.00 C657.77,769.00 656.98,768.44 656.75,767.75 C656.42,766.78 656.00,766.77 654.89,767.68 C654.11,768.33 651.44,769.01 648.98,769.18 C644.89,769.47 644.52,769.72 644.70,772.00 L 644.90 774.50 L 643.80 772.25 C642.51,769.62 641.42,769.43 639.36,771.50 C638.53,772.32 636.65,773.28 635.18,773.62 C633.71,773.96 632.03,774.83 631.45,775.54 C630.26,777.01 618.00,776.39 618.00,774.86 C618.00,773.51 563.63,773.77 562.27,775.13 C560.49,776.91 522.14,777.46 513.61,775.82 C505.72,774.31 503.08,771.94 506.47,769.42 C507.56,768.61 509.01,768.17 509.69,768.44 C511.52,769.14 514.23,766.01 513.67,763.85 C513.29,762.39 513.75,762.00 515.89,762.00 C518.91,762.00 520.98,760.40 521.03,758.05 C521.10,754.74 523.96,752.64 529.19,752.07 C529.56,752.03 530.01,750.54 530.19,748.75 C530.44,746.11 530.95,745.48 532.92,745.38 C535.72,745.24 538.00,742.60 537.52,740.08 C537.28,738.86 538.21,737.97 540.58,737.11 C543.11,736.19 544.18,735.07 544.80,732.69 C545.47,730.12 546.15,729.49 548.30,729.45 C551.35,729.40 553.92,726.58 553.97,723.25 C553.99,722.01 554.56,720.95 555.25,720.88 C555.94,720.82 557.10,720.71 557.84,720.63 C559.61,720.46 561.72,714.16 561.54,709.61 C561.46,707.63 561.64,705.94 561.95,705.87 C562.25,705.80 563.53,705.64 564.78,705.51 C567.39,705.24 568.07,704.73 568.35,702.84 C568.46,702.10 568.95,700.87 569.43,700.10 C570.07,699.07 569.95,698.91 568.98,699.51 C567.98,700.13 567.85,699.86 568.44,698.41 C569.68,695.34 569.84,691.00 568.71,691.00 C567.03,691.00 568.83,689.68 570.75,689.51 C573.39,689.27 576.99,687.95 577.09,687.18 C577.14,686.81 577.32,684.03 577.50,681.00 C577.68,677.97 577.86,675.00 577.91,674.39 C577.96,673.77 579.01,673.32 580.25,673.39 C583.95,673.57 585.77,671.05 584.65,667.29 C584.12,665.52 583.26,664.34 582.74,664.66 C582.23,664.98 582.32,664.28 582.95,663.10 C583.58,661.92 583.78,660.45 583.39,659.82 C582.96,659.13 583.14,658.97 583.85,659.40 C584.91,660.06 585.54,658.07 585.06,655.56 C584.96,655.05 585.14,653.59 585.46,652.31 C586.01,650.10 586.46,650.00 595.27,649.99 C600.35,649.99 606.30,649.48 608.50,648.87 C610.70,648.25 614.30,647.67 616.50,647.58 C618.70,647.48 622.38,647.31 624.68,647.20 C626.98,647.09 629.53,646.33 630.35,645.51 C631.17,644.69 631.99,644.39 632.17,644.85 C632.97,646.88 637.70,646.93 639.84,644.94 C641.55,643.34 642.00,643.24 642.00,644.44 C642.00,645.28 643.10,646.24 644.44,646.58 C647.17,647.26 649.34,646.36 648.45,644.92 C647.48,643.36 650.29,641.51 654.00,641.28 C662.88,640.71 669.75,639.58 670.83,638.50 C671.41,637.93 672.03,635.52 672.23,633.16 C672.31,632.13 674.12,631.93 680.20,632.27 C685.25,632.56 688.30,632.33 688.73,631.63 C689.84,629.84 689.75,627.00 688.58,626.97 C687.99,626.95 688.31,626.47 689.31,625.89 C690.31,625.31 691.77,625.08 692.56,625.38 C693.35,625.69 694.00,625.47 694.00,624.91 C694.00,624.34 694.45,624.16 695.00,624.50 C695.55,624.84 696.00,624.61 696.00,624.00 C696.00,623.39 696.46,623.17 697.02,623.52 C697.59,623.86 697.99,623.78 697.91,623.32 C697.38,620.30 698.19,618.00 699.78,618.00 C702.10,618.00 706.09,615.18 705.91,613.67 C705.55,610.79 706.10,608.93 707.25,609.11 C709.31,609.45 712.00,607.88 712.00,606.36 C712.00,604.07 715.04,600.08 716.39,600.60 C717.07,600.86 718.46,600.15 719.47,599.04 C720.56,597.83 720.83,597.00 720.12,597.00 C719.25,597.00 719.21,596.47 719.96,595.07 C720.53,594.00 721.00,591.51 721.00,589.53 C721.00,586.72 721.49,585.75 723.25,585.09 C724.49,584.62 725.81,584.42 726.20,584.65 C726.58,584.87 727.15,583.58 727.45,581.78 C728.12,577.77 728.81,572.89 728.92,571.37 C728.96,570.75 730.34,569.69 731.97,569.01 C735.65,567.49 737.41,565.46 736.42,563.87 C735.40,562.21 735.56,553.91 736.63,553.13 C738.04,552.11 737.61,549.19 735.73,546.99 C734.18,545.19 734.14,544.62 735.35,542.22 C736.11,540.73 736.50,538.87 736.23,538.11 C735.90,537.17 736.16,536.98 737.04,537.52 C737.97,538.10 738.16,537.86 737.71,536.68 C737.36,535.77 737.39,535.07 737.79,535.13 C740.25,535.50 741.00,534.67 741.00,531.56 C741.00,529.67 741.47,527.83 742.05,527.47 C742.76,527.03 742.77,526.43 742.08,525.60 C741.40,524.77 741.45,523.15 742.25,520.53 C743.27,517.23 743.20,516.53 741.82,515.66 C740.52,514.84 740.42,514.18 741.30,512.25 C742.10,510.48 742.08,509.36 741.21,507.97 C740.47,506.78 740.40,505.87 741.02,505.49 C741.56,505.15 742.00,503.76 742.00,502.38 C742.00,500.97 741.56,500.15 741.00,500.50 C740.45,500.84 740.00,500.22 740.00,499.12 C740.00,498.02 740.49,496.82 741.08,496.45 C741.68,496.08 741.90,494.73 741.58,493.45 C741.26,492.17 741.44,490.84 742.00,490.50 C742.55,490.16 743.00,488.80 743.00,487.47 C743.00,485.71 742.58,485.22 741.46,485.65 C740.48,486.03 740.02,485.75 740.21,484.87 C740.39,484.00 739.77,483.61 738.50,483.79 C737.38,483.95 736.94,483.73 737.50,483.29 C738.94,482.15 739.22,479.97 738.11,478.63 C736.85,477.12 736.31,464.90 737.42,463.12 C737.99,462.20 737.73,461.43 736.64,460.82 C734.86,459.82 734.38,457.00 736.00,457.00 C736.55,457.00 737.00,456.33 737.00,455.50 C737.00,454.67 736.55,454.00 736.00,454.00 C735.45,454.00 734.96,453.21 734.92,452.25 C734.88,451.25 734.63,451.03 734.35,451.72 C733.96,452.68 733.57,452.68 732.54,451.72 C731.58,450.83 731.53,450.30 732.36,449.77 C733.09,449.30 732.87,449.03 731.75,449.02 C730.79,449.01 730.11,448.44 730.25,447.75 C730.39,447.06 729.94,446.61 729.25,446.75 C728.12,446.98 727.26,440.62 728.00,437.50 C728.25,436.42 728.32,433.21 728.12,431.35 C728.05,430.72 726.56,430.27 724.77,430.35 C722.20,430.47 721.54,430.11 721.52,428.55 C721.51,427.34 719.55,425.27 716.38,423.11 C712.68,420.59 711.25,418.96 711.25,417.29 C711.25,416.01 711.63,414.73 712.09,414.45 C712.55,414.16 712.52,412.87 712.03,411.57 C711.53,410.27 711.44,408.86 711.81,408.44 C712.19,408.02 711.98,407.98 711.34,408.35 C710.69,408.71 710.02,408.57 709.84,408.04 C709.65,407.50 708.38,406.89 707.00,406.68 C705.62,406.47 704.44,405.67 704.37,404.90 C704.29,404.13 704.18,402.56 704.12,401.42 C704.05,400.27 703.44,399.31 702.75,399.29 C702.06,399.26 700.64,398.88 699.59,398.45 C698.14,397.85 697.87,397.98 698.49,398.98 C699.04,399.87 698.92,400.07 698.14,399.59 C697.48,399.18 697.13,397.37 697.35,395.43 C697.69,392.28 697.12,391.51 694.75,391.88 C694.34,391.95 694.00,391.52 694.00,390.94 C694.00,390.36 693.56,390.15 693.02,390.49 C692.48,390.82 691.09,390.58 689.92,389.96 C688.41,389.15 687.93,388.14 688.26,386.44 C688.51,385.13 688.36,384.27 687.94,384.54 C687.52,384.80 687.00,384.49 686.78,383.85 C686.45,382.85 682.61,382.43 679.47,383.05 C675.64,383.80 674.03,382.84 673.06,379.23 C672.13,375.76 671.75,375.45 668.27,375.33 C658.24,374.97 656.51,374.51 656.17,372.10 C655.95,370.62 656.23,370.02 656.92,370.45 C657.51,370.82 658.00,370.69 658.00,370.17 C658.00,369.64 657.21,368.89 656.25,368.50 C654.02,367.58 641.00,367.29 641.00,368.15 C641.00,369.11 631.46,367.79 630.35,366.69 C629.98,366.31 627.73,366.00 625.37,366.00 C622.30,366.00 620.52,366.60 619.13,368.09 L 617.18 370.18 L 615.09 368.09 C612.77,365.77 610.95,365.45 609.31,367.09 C608.53,367.87 608.04,367.87 607.55,367.09 C606.72,365.74 570.39,365.56 569.56,366.90 C569.26,367.39 568.89,417.77 568.75,478.84 L 568.50 589.89 L 566.25 591.98 C565.01,593.13 564.00,594.69 564.00,595.43 C564.00,596.18 563.29,597.06 562.42,597.39 C561.40,597.78 560.95,598.97 561.14,600.75 C561.30,602.26 561.10,604.03 560.71,604.67 C559.66,606.36 561.69,611.00 563.48,611.00 C565.58,611.00 565.38,612.34 562.95,614.55 C561.69,615.69 561.00,617.39 561.16,618.95 C561.31,620.36 561.16,621.95 560.84,622.50 C560.52,623.05 559.94,625.75 559.56,628.50 C558.26,637.93 557.93,639.21 556.47,640.68 C555.66,641.48 555.00,642.76 555.00,643.52 C555.00,644.28 554.32,645.28 553.48,645.75 C551.67,646.77 551.00,649.63 550.88,656.93 C550.77,663.32 549.31,665.14 544.15,665.29 C543.15,665.32 542.95,666.31 543.39,669.06 C544.16,673.88 541.73,680.00 539.05,680.00 C536.75,680.00 535.57,681.60 535.36,685.00 C535.28,686.38 535.12,687.72 535.00,688.00 C534.88,688.28 534.88,689.79 534.98,691.36 C535.10,693.07 534.77,693.97 534.17,693.60 C533.61,693.26 532.48,693.66 531.65,694.49 C530.82,695.32 529.70,696.00 529.16,696.00 C528.61,696.00 527.58,697.34 526.85,698.98 C526.13,700.61 524.32,702.45 522.84,703.07 C520.19,704.16 518.15,707.00 520.01,707.00 C520.56,707.00 520.50,708.01 519.85,709.43 C518.84,711.65 515.00,712.73 515.00,710.79 C515.00,710.35 514.19,710.79 513.21,711.75 C512.17,712.76 511.59,714.45 511.82,715.75 C512.05,716.99 511.73,718.00 511.12,718.00 C507.32,718.00 505.15,719.66 504.21,723.27 C503.74,725.05 502.72,726.53 501.93,726.56 C497.37,726.75 495.48,728.41 495.94,731.82 C496.25,734.09 493.89,736.00 490.79,736.00 C488.42,736.00 487.60,736.60 486.69,739.00 C486.07,740.65 485.22,742.00 484.81,742.00 C484.40,742.00 484.31,742.66 484.62,743.46 C485.04,744.56 484.60,744.79 482.84,744.41 C475.07,742.73 470.30,744.02 471.62,747.45 C472.14,748.81 468.33,751.67 467.33,750.67 C467.06,750.39 465.32,750.80 463.47,751.58 C461.62,752.35 459.41,752.71 458.56,752.39 C457.53,751.99 456.71,752.58 456.12,754.15 C455.63,755.44 455.40,756.79 455.61,757.14 C456.11,758.00 451.15,759.21 450.02,758.51 C449.54,758.21 448.86,758.42 448.51,758.98 C448.16,759.54 446.53,760.00 444.88,760.00 C443.14,760.00 442.14,760.42 442.50,761.00 C442.84,761.55 442.70,762.00 442.20,762.00 C441.69,762.00 440.11,763.16 438.69,764.59 C435.99,767.29 435.52,767.35 411.85,768.31 C409.29,768.42 407.45,768.91 407.75,769.41 C408.08,769.94 407.31,769.98 405.91,769.53 C400.61,767.79 397.93,768.57 394.01,772.99 C390.50,776.95 389.95,777.21 386.61,776.59 C384.62,776.21 383.00,775.48 383.00,774.95 C383.00,774.40 378.18,774.00 371.61,774.00 C362.40,774.00 360.10,774.29 359.64,775.50 ZM 404.33 770.25 C405.92,771.42 405.91,771.58 404.13,772.69 C402.48,773.72 402.28,773.63 402.70,772.03 C403.02,770.81 402.56,770.02 401.34,769.71 C400.01,769.36 399.93,769.20 401.06,769.12 C401.92,769.05 403.39,769.56 404.33,770.25 Z" fill="rgb(0,0,0)"/>
<path d="M 443.02 250.10 C443.13,253.78 443.64,255.31 445.07,256.85 C447.00,258.91 447.07,259.56 446.07,265.98 C445.48,269.78 445.00,273.16 445.00,273.50 C445.00,273.84 444.55,273.84 444.00,273.50 C443.34,273.09 443.00,281.45 443.00,297.82 C443.00,318.76 443.24,322.95 444.50,324.00 C446.26,325.46 446.52,330.00 444.85,330.00 C444.15,330.00 444.35,330.73 445.35,331.83 C447.50,334.21 447.43,335.30 445.00,337.50 C443.03,339.29 443.00,340.58 443.00,432.06 L 443.00 524.81 L 445.10 524.26 C446.76,523.83 447.12,524.11 446.81,525.61 C446.58,526.74 445.74,527.38 444.71,527.21 C443.15,526.94 443.00,528.52 443.00,545.90 C443.00,557.47 443.39,565.12 444.00,565.50 C444.55,565.84 445.00,567.19 445.00,568.50 C445.00,569.81 444.55,571.16 444.00,571.50 C442.51,572.42 442.79,576.78 444.39,577.70 C445.24,578.18 446.03,581.05 446.41,584.95 C446.75,588.50 447.59,591.76 448.27,592.19 C449.24,592.80 449.23,592.97 448.25,592.98 C447.56,592.99 447.00,593.93 447.00,595.06 C447.00,596.19 446.55,596.84 446.00,596.50 C444.52,595.58 444.79,597.34 446.47,599.56 C447.28,600.63 447.92,602.62 447.90,604.00 C447.86,606.29 447.79,606.33 447.00,604.50 C446.39,603.07 446.09,602.93 445.95,604.00 C445.85,604.83 445.83,605.87 445.91,606.32 C445.99,606.78 445.57,606.85 444.98,606.49 C444.39,606.12 442.75,606.59 441.32,607.52 C439.48,608.73 439.09,609.44 439.98,609.98 C440.79,610.49 441.04,612.24 440.71,615.13 C440.43,617.53 440.61,620.26 441.10,621.19 C441.77,622.44 441.45,623.27 439.89,624.37 C438.72,625.18 437.19,625.63 436.49,625.36 C435.77,625.08 434.54,626.21 433.67,627.95 C432.71,629.89 432.58,630.79 433.32,630.37 C434.13,629.91 434.11,630.12 433.26,631.04 C432.58,631.78 431.23,632.54 430.26,632.73 C429.29,632.92 427.83,633.21 427.00,633.38 C426.17,633.56 425.47,634.33 425.44,635.10 C425.27,639.09 423.81,641.00 420.90,641.00 C419.19,641.00 417.69,641.63 417.36,642.49 C417.05,643.32 416.28,643.69 415.65,643.33 C415.02,642.97 414.84,643.05 415.25,643.51 C416.19,644.54 413.18,648.00 411.35,648.00 C410.61,648.00 409.99,648.56 409.98,649.25 C409.98,650.02 409.69,650.12 409.23,649.50 C408.46,648.44 406.57,648.44 382.32,649.42 C372.39,649.83 366.92,649.69 366.51,649.02 C366.13,648.40 365.21,648.34 364.19,648.85 C362.38,649.77 351.89,649.40 343.16,648.12 C337.67,647.31 335.81,645.87 336.69,643.09 C337.04,641.97 336.93,641.86 336.30,642.73 C335.63,643.66 334.99,643.46 333.69,641.95 C332.36,640.39 331.55,640.17 330.09,640.95 C327.55,642.31 326.11,640.44 326.47,636.25 C326.73,633.30 326.53,633.05 324.32,633.45 C321.76,633.91 317.46,630.68 318.47,629.05 C319.25,627.79 318.12,625.35 316.71,625.23 C314.35,625.01 312.05,624.38 311.45,623.78 C311.12,623.45 310.69,620.64 310.50,617.53 C310.25,613.47 310.53,611.73 311.50,611.36 C313.51,610.59 314.21,608.00 312.41,608.00 C311.57,608.00 311.16,608.45 311.50,609.00 C311.84,609.55 311.42,610.00 310.56,610.00 C309.70,610.00 309.00,609.55 309.00,609.00 C309.00,608.45 308.10,608.00 307.00,608.00 C305.90,608.00 305.00,607.52 305.00,606.94 C305.00,606.36 304.55,606.16 304.00,606.50 C302.85,607.21 302.63,604.71 303.73,603.60 C304.76,602.57 305.08,592.17 304.11,591.57 C303.67,591.30 303.74,588.26 304.26,584.82 C304.81,581.18 304.84,577.92 304.33,577.03 C303.84,576.19 303.70,571.00 304.00,565.50 C304.31,560.00 304.23,553.91 303.82,551.97 C303.42,550.03 303.44,544.86 303.88,540.47 C304.31,536.09 304.36,529.35 304.00,525.50 C303.64,521.65 303.64,514.00 304.01,508.50 C304.38,503.00 304.36,489.50 303.96,478.50 C303.56,467.50 303.34,409.10 303.46,348.71 C303.62,270.19 303.37,238.72 302.59,238.21 C301.07,237.22 210.17,236.87 201.00,237.83 C196.88,238.26 188.32,238.31 182.00,237.94 C173.44,237.44 170.12,237.59 169.00,238.52 C168.18,239.20 166.49,240.07 165.25,240.45 C163.49,240.98 163.00,241.88 163.00,244.52 C163.00,246.38 162.46,249.09 161.81,250.53 C160.87,252.57 160.88,253.58 161.84,255.12 C162.58,256.31 163.00,260.10 162.90,264.65 C162.78,269.92 163.12,272.45 164.02,273.01 C165.87,274.16 164.65,290.62 162.54,292.96 C160.89,294.78 160.34,304.00 161.88,304.00 C162.37,304.00 163.07,306.87 163.45,310.37 C163.96,315.13 163.74,317.69 162.58,320.46 C161.43,323.22 161.30,324.69 162.08,326.14 C162.66,327.22 163.29,330.00 163.49,332.30 C163.68,334.61 164.07,337.74 164.33,339.25 C164.60,340.76 164.50,342.00 164.11,342.00 C162.54,342.00 161.00,349.07 161.00,356.26 C161.00,362.09 161.47,364.68 163.00,367.28 C164.72,370.19 164.84,371.16 163.86,373.99 C162.99,376.48 162.99,377.75 163.85,379.13 C165.15,381.22 165.41,384.37 164.21,383.63 C163.78,383.36 162.81,384.53 162.06,386.22 C161.02,388.58 160.97,389.72 161.85,391.13 C163.26,393.40 163.36,399.66 162.00,400.50 C160.70,401.30 160.70,406.70 162.00,407.50 C162.61,407.88 162.95,414.28 162.87,423.81 C162.79,433.37 162.45,438.13 162.00,436.00 C161.43,433.27 161.23,434.20 161.13,440.25 C161.05,444.84 161.41,448.00 162.00,448.00 C162.55,448.00 163.00,449.12 163.00,450.50 C163.00,451.88 162.59,453.00 162.09,453.00 C160.85,453.00 160.77,468.74 162.01,469.51 C163.31,470.31 163.30,476.00 162.00,476.00 C161.36,476.00 161.00,484.35 161.00,499.06 C161.00,514.18 161.34,521.91 162.00,521.50 C162.60,521.13 163.00,522.32 163.00,524.44 C163.00,526.40 162.55,528.00 162.00,528.00 C161.42,528.00 161.00,531.35 161.00,536.06 C161.00,541.18 161.36,543.89 162.00,543.50 C162.57,543.15 163.00,543.99 163.00,545.44 C163.00,546.85 162.57,548.00 162.04,548.00 C160.64,548.00 161.02,563.17 162.46,565.24 C163.13,566.20 163.98,566.69 164.34,566.33 C164.70,565.96 165.01,566.53 165.02,567.58 C165.03,569.19 165.19,569.25 166.00,568.00 C166.73,566.86 166.97,567.30 166.98,569.81 C166.99,571.63 166.60,572.87 166.11,572.57 C165.62,572.26 165.03,573.59 164.81,575.51 C164.59,577.43 164.76,579.00 165.20,579.00 C166.32,579.00 166.20,584.76 165.07,585.46 C164.55,585.78 164.39,587.65 164.71,589.62 C165.12,592.11 164.87,593.46 163.90,594.06 C162.76,594.77 162.84,595.16 164.35,596.27 C165.57,597.16 166.20,598.88 166.20,601.31 C166.20,603.34 166.57,605.00 167.01,605.00 C167.46,605.00 167.85,607.87 167.87,611.37 C167.90,614.87 168.45,618.90 169.10,620.32 C170.02,622.34 170.00,623.60 168.98,626.05 C167.95,628.54 167.94,629.34 168.93,629.95 C169.61,630.38 170.13,631.02 170.07,631.37 C169.86,632.73 173.26,636.96 174.13,636.42 C174.64,636.11 174.93,636.45 174.77,637.18 C174.62,637.90 175.06,638.39 175.75,638.25 C177.08,637.98 177.18,638.49 177.42,647.00 C177.51,650.03 177.11,652.83 176.54,653.23 C175.93,653.67 176.22,653.98 177.25,653.98 C178.21,653.99 179.00,654.48 179.00,655.06 C179.00,655.64 179.41,655.86 179.92,655.55 C181.23,654.74 184.21,658.00 183.61,659.58 C183.32,660.33 183.62,660.70 184.30,660.44 C185.04,660.16 185.50,660.95 185.50,662.49 C185.50,663.87 185.11,665.00 184.63,665.00 C184.15,665.00 184.28,665.63 184.91,666.39 C185.55,667.16 185.94,668.37 185.79,669.08 C185.63,669.79 186.85,671.03 188.50,671.84 C191.79,673.45 193.14,674.97 192.38,676.20 C192.10,676.64 192.35,677.00 192.92,677.00 C193.54,677.00 193.66,677.89 193.20,679.25 C192.79,680.49 192.53,682.17 192.61,683.00 C192.70,683.83 192.82,685.14 192.88,685.92 C192.95,686.70 193.25,687.08 193.56,686.77 C193.87,686.46 195.29,686.52 196.72,686.90 C198.46,687.37 199.43,688.40 199.66,690.05 C199.85,691.40 200.95,693.17 202.10,694.00 C206.30,697.00 210.03,701.14 209.42,702.12 C209.08,702.68 209.41,703.03 210.15,702.91 C212.50,702.52 215.02,704.15 216.50,706.99 C217.28,708.51 217.60,710.08 217.21,710.50 C216.82,710.91 217.44,710.96 218.58,710.61 C220.75,709.95 225.75,713.34 225.24,715.14 C225.10,715.65 225.70,717.45 226.57,719.14 C227.51,720.96 227.68,721.92 226.98,721.49 C226.08,720.93 226.07,721.26 226.95,722.91 C227.58,724.09 228.49,724.82 228.96,724.52 C229.44,724.23 229.99,724.46 230.18,725.05 C230.38,725.63 231.20,726.21 232.02,726.33 C232.83,726.46 234.03,726.89 234.68,727.29 C235.33,727.70 236.13,727.59 236.47,727.05 C237.33,725.66 241.26,729.87 241.39,732.31 C241.46,733.67 242.25,734.39 243.79,734.50 C245.93,734.66 248.75,737.52 250.07,740.88 C250.77,742.66 253.21,743.29 258.67,743.12 C263.38,742.98 266.09,744.92 265.50,748.01 C265.29,749.11 265.57,750.00 266.12,750.00 C266.67,750.00 266.82,750.48 266.46,751.07 C266.10,751.65 266.41,752.05 267.15,751.95 C270.56,751.48 273.08,752.06 272.40,753.15 C271.97,753.86 272.13,754.04 272.82,753.61 C273.45,753.22 274.92,753.42 276.10,754.05 C277.59,754.85 278.03,754.86 277.56,754.10 C277.19,753.49 277.40,753.00 278.03,753.00 C278.67,753.00 279.42,753.90 279.71,755.00 C280.00,756.10 280.88,757.00 281.68,757.00 C282.47,757.00 282.87,757.41 282.56,757.91 C282.25,758.41 282.90,758.58 284.00,758.29 C285.28,757.96 286.01,758.26 286.02,759.13 C286.03,760.27 286.17,760.28 286.88,759.16 C287.59,758.04 288.27,758.09 290.82,759.41 C294.53,761.32 297.14,761.43 298.92,759.75 C299.98,758.75 300.34,758.75 300.71,759.75 C300.96,760.44 301.92,761.04 302.83,761.08 C303.97,761.13 304.08,761.33 303.19,761.68 C300.92,762.59 304.95,766.00 308.29,766.00 C312.23,766.00 324.00,768.19 324.00,768.92 C324.00,769.24 326.81,769.46 330.25,769.41 C333.69,769.37 337.04,769.74 337.70,770.25 C338.36,770.75 339.85,770.87 341.00,770.50 C342.27,770.10 344.08,770.48 345.59,771.47 C347.01,772.39 348.94,772.84 350.05,772.49 C351.54,772.01 352.00,772.34 352.00,773.85 C352.00,774.90 352.74,775.76 353.76,776.33 C336.06,775.62 322.60,773.36 303.50,768.50 C266.39,759.04 235.94,740.65 210.76,712.50 C179.31,677.34 163.85,636.10 161.01,579.86 C160.45,568.92 160.02,489.54 160.01,397.25 L 160.00 234.00 L 308.00 234.00 L 308.00 406.04 C308.00,522.19 308.35,581.21 309.08,587.73 C312.40,617.53 325.60,634.74 351.50,643.01 C361.34,646.15 381.97,646.89 394.50,644.55 C418.48,640.07 434.04,625.35 440.71,600.83 C442.30,594.97 442.45,581.09 442.74,414.16 ZM 617.24 370.11 L 619.13 368.09 C620.52,366.60 622.30,366.00 625.37,366.00 C627.73,366.00 629.98,366.31 630.35,366.69 C631.46,367.79 641.00,369.11 641.00,368.15 C641.00,367.29 654.02,367.58 656.25,368.50 C657.21,368.89 658.00,369.64 658.00,370.17 C658.00,370.69 657.51,370.82 656.92,370.45 C656.23,370.02 655.95,370.62 656.17,372.10 C656.51,374.51 658.24,374.97 668.27,375.33 C671.75,375.45 672.13,375.76 673.06,379.23 C674.03,382.84 675.64,383.80 679.47,383.05 C682.61,382.43 686.45,382.85 686.78,383.85 C687.00,384.49 687.52,384.80 687.94,384.54 C688.36,384.27 688.51,385.13 688.26,386.44 C687.93,388.14 688.41,389.15 689.92,389.96 C691.09,390.58 692.48,390.82 693.02,390.49 C693.56,390.15 694.00,390.36 694.00,390.94 C694.00,391.52 694.34,391.95 694.75,391.88 C697.12,391.51 697.69,392.28 697.35,395.43 C697.13,397.37 697.48,399.18 698.14,399.59 C698.92,400.07 699.04,399.87 698.49,398.98 C697.87,397.98 698.14,397.85 699.59,398.45 C700.64,398.88 702.06,399.26 702.75,399.29 C703.44,399.31 704.05,400.27 704.12,401.42 C704.18,402.56 704.29,404.13 704.37,404.90 C704.44,405.67 705.62,406.47 707.00,406.68 C708.38,406.89 709.65,407.50 709.84,408.04 C710.02,408.57 710.69,408.71 711.34,408.35 C711.98,407.98 712.19,408.02 711.81,408.44 C711.44,408.86 711.53,410.27 712.03,411.57 C712.52,412.87 712.55,414.16 712.09,414.45 C711.63,414.73 711.25,416.01 711.25,417.29 C711.25,418.96 712.68,420.59 716.38,423.11 C719.55,425.27 721.51,427.34 721.52,428.55 C721.54,430.11 722.20,430.47 724.77,430.35 C726.56,430.27 728.05,430.72 728.12,431.35 C728.32,433.21 728.25,436.42 728.00,437.50 C727.26,440.62 728.12,446.98 729.25,446.75 C729.94,446.61 730.39,447.06 730.25,447.75 C730.11,448.44 730.79,449.01 731.75,449.02 C732.87,449.03 733.09,449.30 732.36,449.77 C731.53,450.30 731.58,450.83 732.54,451.72 C733.57,452.68 733.96,452.68 734.35,451.72 C734.63,451.03 734.88,451.25 734.92,452.25 C734.96,453.21 735.45,454.00 736.00,454.00 C736.55,454.00 737.00,454.67 737.00,455.50 C737.00,456.33 736.55,457.00 736.00,457.00 C734.38,457.00 734.86,459.82 736.64,460.82 C737.73,461.43 737.99,462.20 737.42,463.12 C736.31,464.90 736.85,477.12 738.11,478.63 C739.22,479.97 738.94,482.15 737.50,483.29 C736.94,483.73 737.38,483.95 738.50,483.79 C739.77,483.61 740.39,484.00 740.21,484.87 C740.02,485.75 740.48,486.03 741.46,485.65 C742.58,485.22 743.00,485.71 743.00,487.47 C743.00,488.80 742.55,490.16 742.00,490.50 C741.44,490.84 741.26,492.17 741.58,493.45 C741.90,494.73 741.68,496.08 741.08,496.45 C740.49,496.82 740.00,498.02 740.00,499.12 C740.00,500.22 740.45,500.84 741.00,500.50 C741.56,500.15 742.00,500.97 742.00,502.38 C742.00,503.76 741.56,505.15 741.02,505.49 C740.40,505.87 740.47,506.78 741.21,507.97 C742.08,509.36 742.10,510.48 741.30,512.25 C740.42,514.18 740.52,514.84 741.82,515.66 C743.20,516.53 743.27,517.23 742.25,520.53 C741.45,523.15 741.40,524.77 742.08,525.60 C742.77,526.43 742.76,527.03 742.05,527.47 C741.47,527.83 741.00,529.67 741.00,531.56 C741.00,534.67 740.25,535.50 737.79,535.13 C737.39,535.07 737.36,535.77 737.71,536.68 C738.16,537.86 737.97,538.10 737.04,537.52 C736.16,536.98 735.90,537.17 736.23,538.11 C736.50,538.87 736.11,540.73 735.35,542.22 C734.14,544.62 734.18,545.19 735.73,546.99 C737.61,549.19 738.04,552.11 736.63,553.13 C735.56,553.91 735.40,562.21 736.42,563.87 C737.41,565.46 735.65,567.49 731.97,569.01 C730.34,569.69 728.96,570.75 728.92,571.37 C728.81,572.89 728.12,577.77 727.45,581.78 C727.15,583.58 726.58,584.87 726.20,584.65 C725.81,584.42 724.49,584.62 723.25,585.09 C721.49,585.75 721.00,586.72 721.00,589.53 C721.00,591.51 720.53,594.00 719.96,595.07 C719.21,596.47 719.25,597.00 720.12,597.00 C720.83,597.00 720.56,597.83 719.47,599.04 C718.46,600.15 717.07,600.86 716.39,600.60 C715.04,600.08 712.00,604.07 712.00,606.36 C712.00,607.88 709.31,609.45 707.25,609.11 C706.10,608.93 705.55,610.79 705.91,613.67 C706.09,615.18 702.10,618.00 699.78,618.00 C698.19,618.00 697.38,620.30 697.91,623.32 C697.99,623.78 697.59,623.86 697.02,623.52 C696.46,623.17 696.00,623.39 696.00,624.00 C696.00,624.61 695.55,624.84 695.00,624.50 C694.45,624.16 694.00,624.34 694.00,624.91 C694.00,625.47 693.35,625.69 692.56,625.38 C691.77,625.08 690.31,625.31 689.31,625.89 C688.31,626.47 687.99,626.95 688.58,626.97 C689.75,627.00 689.84,629.84 688.73,631.63 C688.30,632.33 685.25,632.56 680.20,632.27 C674.12,631.93 672.31,632.13 672.23,633.16 C672.03,635.52 671.41,637.93 670.83,638.50 C669.75,639.58 662.88,640.71 654.00,641.28 C650.29,641.51 647.48,643.36 648.45,644.92 C649.34,646.36 647.17,647.26 644.44,646.58 C643.10,646.24 642.00,645.28 642.00,644.44 C642.00,643.24 641.55,643.34 639.84,644.94 C637.70,646.93 632.97,646.88 632.17,644.85 C631.99,644.39 631.17,644.69 630.35,645.51 C629.53,646.33 626.98,647.09 624.68,647.20 C622.38,647.31 618.70,647.48 616.50,647.58 C614.30,647.67 610.70,648.25 608.50,648.87 C606.30,649.48 600.35,649.99 595.27,649.99 C586.46,650.00 586.01,650.10 585.46,652.31 C585.14,653.59 584.96,655.05 585.06,655.56 C585.54,658.07 584.91,660.06 583.85,659.40 C583.14,658.97 582.96,659.13 583.39,659.82 C583.78,660.45 583.58,661.92 582.95,663.10 C582.32,664.28 582.23,664.98 582.74,664.66 C583.26,664.34 584.12,665.52 584.65,667.29 C585.77,671.05 583.95,673.57 580.25,673.39 C579.01,673.32 577.96,673.77 577.91,674.39 C577.86,675.00 577.68,677.97 577.50,681.00 C577.32,684.03 577.14,686.81 577.09,687.18 C576.99,687.95 573.39,689.27 570.75,689.51 C568.83,689.68 567.03,691.00 568.71,691.00 C569.84,691.00 569.68,695.34 568.44,698.41 C567.85,699.86 567.98,700.13 568.98,699.51 C569.95,698.91 570.07,699.07 569.43,700.10 C568.95,700.87 568.46,702.10 568.35,702.84 C568.07,704.73 567.39,705.24 564.78,705.51 C563.53,705.64 562.25,705.80 561.95,705.87 C561.64,705.94 561.46,707.63 561.54,709.61 C561.72,714.16 559.61,720.46 557.84,720.63 C557.10,720.71 555.94,720.82 555.25,720.88 C554.56,720.95 553.99,722.01 553.97,723.25 C553.92,726.58 551.35,729.40 548.30,729.45 C546.15,729.49 545.47,730.12 544.80,732.69 C544.18,735.07 543.11,736.19 540.58,737.11 C538.21,737.97 537.28,738.86 537.52,740.08 C538.00,742.60 535.72,745.24 532.92,745.38 C530.95,745.48 530.44,746.11 530.19,748.75 C530.01,750.54 529.56,752.03 529.19,752.07 C523.96,752.64 521.10,754.74 521.03,758.05 C520.98,760.40 518.91,762.00 515.89,762.00 C513.75,762.00 513.29,762.39 513.67,763.85 C514.23,766.01 511.52,769.14 509.69,768.44 C509.01,768.17 507.56,768.61 506.47,769.42 C503.08,771.94 505.72,774.31 513.61,775.82 C515.28,776.14 518.10,776.38 521.58,776.54 C516.87,776.47 513.14,776.38 510.72,776.28 L 491.95 775.50 L 500.20 769.53 C510.34,762.21 529.02,744.26 537.71,733.50 C554.30,712.96 569.64,685.59 579.49,658.94 L 584.13 646.37 L 604.49 645.17 C626.70,643.86 638.92,642.10 652.00,638.33 C696.66,625.46 730.04,583.58 735.97,533.00 C736.64,527.22 737.51,520.47 737.89,518.00 C738.74,512.43 736.74,487.75 734.56,476.98 C729.16,450.37 716.79,426.17 699.21,407.85 C687.02,395.16 679.19,389.26 665.50,382.47 C649.49,374.53 638.99,371.47 617.24,370.11 ZM 878.46 492.25 C878.01,491.33 877.33,490.30 876.50,489.41 C873.60,486.27 873.35,483.17 875.63,478.38 C877.18,475.09 877.16,474.88 875.13,473.11 C873.03,471.29 872.06,467.30 874.00,468.50 C874.55,468.84 875.00,468.67 875.00,468.12 C875.00,467.57 874.60,466.87 874.12,466.57 C872.86,465.80 872.10,461.05 873.13,460.42 C873.61,460.12 874.00,459.43 874.00,458.88 C874.00,458.33 873.60,458.13 873.11,458.43 C871.09,459.68 869.44,446.99 871.19,443.66 C872.57,441.05 872.02,440.70 865.63,440.08 C865.16,440.04 864.98,438.89 865.24,437.52 C865.53,436.01 865.05,434.36 864.01,433.27 C862.67,431.87 862.50,430.81 863.22,428.18 C863.79,426.12 863.77,424.41 863.17,423.68 C862.62,423.00 862.53,420.49 862.95,417.75 C863.42,414.68 863.32,413.00 862.65,413.00 C862.08,413.00 862.45,412.39 863.47,411.64 C865.19,410.39 865.05,410.23 861.68,409.60 C858.32,408.97 855.01,405.66 856.38,404.29 C856.68,403.99 856.29,402.52 855.51,401.03 C854.74,399.53 854.36,397.34 854.67,396.15 C855.14,394.37 854.71,393.89 852.18,393.39 C848.72,392.69 847.94,391.33 847.47,385.18 C847.13,380.75 844.77,376.00 842.92,376.00 C842.35,376.00 842.14,375.58 842.46,375.07 C842.77,374.56 842.54,373.84 841.95,373.47 C841.35,373.10 841.11,372.17 841.40,371.40 C841.70,370.63 841.54,370.00 841.06,370.00 C840.58,370.00 839.58,368.09 838.84,365.75 C838.11,363.41 837.05,361.50 836.50,361.49 C834.40,361.48 830.97,358.24 831.52,356.80 C832.21,355.02 829.95,352.95 827.08,352.73 C825.94,352.64 825.00,352.19 825.00,351.73 C825.00,351.26 824.61,351.12 824.14,351.41 C823.67,351.71 823.47,350.72 823.69,349.22 C824.54,343.65 823.70,339.99 821.27,338.58 C819.54,337.58 818.98,337.38 817.07,337.12 C815.98,336.98 814.50,333.07 814.85,331.25 C814.98,330.56 814.62,329.94 814.04,329.88 C812.74,329.72 811.16,329.33 810.50,329.00 C810.22,328.86 809.44,328.69 808.75,328.62 C807.60,328.50 807.40,327.81 807.11,322.67 C807.05,321.65 806.44,321.03 805.75,321.28 C805.06,321.53 803.71,321.32 802.75,320.83 C801.55,320.21 801.00,320.31 801.00,321.13 C801.00,321.79 800.76,322.09 800.47,321.80 C799.78,321.11 798.81,316.96 798.84,314.85 C798.87,312.79 795.90,311.93 793.39,313.28 C792.35,313.84 791.82,313.95 792.20,313.53 C792.59,313.11 792.31,312.17 791.58,311.44 C790.86,310.71 790.39,308.92 790.55,307.46 C790.81,305.13 790.55,304.85 788.42,305.26 C787.09,305.51 785.23,305.16 784.29,304.47 C782.84,303.41 782.76,302.82 783.79,300.56 C784.46,299.10 785.00,297.73 785.00,297.52 C785.00,297.31 782.86,297.19 780.25,297.26 C777.64,297.33 773.92,297.10 772.00,296.76 C770.08,296.42 768.14,296.10 767.69,296.07 C767.25,296.03 767.16,295.55 767.50,295.00 C767.84,294.45 767.65,294.00 767.07,294.00 C766.49,294.00 766.13,292.99 766.26,291.75 C766.46,289.89 765.95,289.45 763.33,289.19 C760.87,288.95 759.93,288.24 759.16,286.03 C758.61,284.46 758.43,282.91 758.75,282.59 C759.07,282.26 758.92,281.97 758.42,281.92 C752.91,281.46 750.19,279.98 749.10,276.85 C748.33,274.65 747.57,273.95 746.44,274.38 C745.57,274.72 743.96,274.51 742.86,273.93 C741.77,273.34 739.94,272.68 738.80,272.46 C736.19,271.96 736.12,271.88 735.68,268.94 C735.37,266.90 734.58,266.40 730.90,265.88 C728.48,265.53 726.16,265.45 725.75,265.69 C725.34,265.92 724.99,265.30 724.98,264.31 C724.97,262.78 724.82,262.73 724.00,264.00 C723.30,265.09 723.03,265.14 723.02,264.19 C723.01,263.47 722.54,263.16 721.98,263.51 C721.42,263.86 721.28,264.67 721.66,265.32 C722.03,265.97 721.38,265.65 720.20,264.62 C719.01,263.58 718.26,262.38 718.53,261.96 C719.62,260.19 717.65,258.00 714.95,258.00 C713.39,258.00 711.89,257.62 711.60,257.16 C711.32,256.70 709.47,256.27 707.49,256.19 C705.52,256.12 703.47,255.79 702.95,255.47 C702.43,255.15 702.00,255.34 702.00,255.89 C702.00,257.77 696.32,254.99 695.21,252.57 C694.17,250.29 692.47,249.71 683.50,248.63 C681.85,248.43 680.17,248.77 679.77,249.38 C679.24,250.18 679.03,250.16 679.02,249.30 C679.00,248.47 677.23,248.21 673.25,248.44 C667.13,248.81 663.54,247.65 664.33,245.58 C665.39,242.81 663.19,242.16 651.38,241.73 C644.71,241.48 638.65,240.90 637.89,240.43 C637.14,239.97 631.19,239.50 624.67,239.40 C617.93,239.29 612.35,238.75 611.75,238.15 C611.06,237.46 610.08,237.42 608.91,238.05 C607.92,238.58 605.22,238.67 602.82,238.26 C598.98,237.61 565.07,237.30 556.00,237.84 C554.08,237.95 529.01,237.92 500.31,237.77 L 448.12 237.50 L 445.56 239.70 C443.68,241.32 443.15,242.32 443.03,245.89 L 443.05 233.83 L 537.28 234.27 C640.49,234.75 643.10,234.88 673.19,241.04 C722.22,251.08 766.84,276.40 805.52,316.13 C847.33,359.08 868.71,402.72 877.22,462.50 C877.89,467.21 878.32,477.71 878.46,492.25 ZM 629.66 776.17 C630.56,776.04 631.21,775.83 631.45,775.54 C632.03,774.83 633.71,773.96 635.18,773.62 C636.65,773.28 638.53,772.32 639.36,771.50 C641.42,769.43 642.51,769.62 643.80,772.25 L 644.90 774.50 L 644.70 772.00 C644.52,769.72 644.89,769.47 648.98,769.18 C651.44,769.01 654.11,768.33 654.89,767.68 C656.00,766.77 656.42,766.78 656.75,767.75 C656.98,768.44 657.77,769.00 658.50,769.00 C659.23,769.00 660.02,769.56 660.25,770.25 C660.56,771.16 661.06,771.21 662.09,770.43 C662.86,769.83 664.75,769.47 666.27,769.62 C667.80,769.76 668.83,769.53 668.57,769.11 C667.88,768.00 680.49,765.83 683.39,766.56 C685.33,767.05 685.96,766.70 686.55,764.83 C686.96,763.55 687.29,762.28 687.28,762.00 C687.25,760.79 691.01,759.05 693.63,759.05 C695.21,759.06 697.62,759.07 699.00,759.08 C700.38,759.09 702.85,758.93 704.50,758.71 C706.15,758.49 708.06,758.24 708.75,758.16 C709.44,758.07 710.00,757.30 710.00,756.44 C710.00,755.58 710.45,755.16 711.00,755.50 C711.55,755.84 712.00,755.61 712.00,754.99 C712.00,752.10 715.33,751.07 721.50,752.06 C723.75,752.42 727.96,751.22 728.08,750.18 C728.60,745.47 729.11,744.82 732.52,744.45 C733.93,744.29 735.64,743.74 736.30,743.21 C736.96,742.69 738.37,742.40 739.43,742.57 C742.35,743.04 745.03,741.25 744.29,739.32 C743.87,738.22 744.05,737.91 744.83,738.39 C745.54,738.83 746.00,738.48 746.00,737.52 C746.00,736.63 746.56,736.02 747.25,736.15 C747.94,736.28 749.40,736.10 750.50,735.74 C751.60,735.37 753.81,734.85 755.42,734.57 C758.39,734.06 759.96,732.55 759.98,730.18 C760.01,727.68 763.41,725.62 767.23,725.79 C769.53,725.90 770.61,724.00 768.88,722.90 C767.80,722.22 767.89,722.03 769.31,722.02 C770.30,722.01 770.84,721.55 770.50,721.00 C770.14,720.41 771.22,720.00 773.12,720.00 C775.70,720.00 782.04,718.44 783.83,717.37 C784.01,717.26 783.67,716.26 783.08,715.14 C782.18,713.47 782.38,712.85 784.20,711.57 C785.41,710.73 786.65,710.36 786.95,710.77 C787.70,711.77 790.06,712.18 789.75,711.25 C789.18,709.51 794.03,703.00 795.90,703.00 C797.89,703.00 799.62,699.80 798.56,698.09 C797.65,696.63 801.07,693.81 802.88,694.52 C805.96,695.72 806.27,695.49 806.39,692.00 C806.52,687.75 807.71,686.24 810.64,686.57 C813.99,686.93 815.61,684.17 815.55,678.24 C815.51,674.46 815.85,673.11 816.74,673.45 C817.42,673.72 817.93,673.61 817.87,673.21 C817.53,670.95 818.25,670.05 820.25,670.26 C822.13,670.46 822.51,670.01 822.53,667.50 C822.55,665.85 822.87,664.00 823.26,663.38 C823.93,662.31 828.01,662.27 829.72,663.33 C830.18,663.61 830.61,660.68 830.68,656.82 C830.83,648.53 831.55,647.50 837.58,647.08 C838.18,647.03 838.58,645.99 838.47,644.75 C838.25,642.19 839.79,639.75 841.11,640.57 C841.60,640.87 842.00,640.62 842.00,640.01 C842.00,639.27 842.55,639.21 843.66,639.83 C846.06,641.17 850.77,635.63 849.02,633.53 C848.37,632.74 847.71,630.93 847.55,629.52 C847.40,628.10 847.00,626.67 846.68,626.35 C845.86,625.53 848.17,623.40 850.80,622.56 C852.01,622.18 853.00,621.42 853.00,620.87 C853.00,620.33 852.55,620.16 852.00,620.50 C851.45,620.84 851.00,620.86 851.00,620.54 C851.00,619.42 856.35,611.49 857.91,610.28 C859.05,609.41 859.13,609.05 858.19,609.03 C857.47,609.01 857.20,608.49 857.59,607.85 C857.98,607.23 858.35,605.45 858.41,603.90 C858.47,602.36 859.49,600.19 860.68,599.08 C862.25,597.62 862.76,596.11 862.56,593.56 C862.35,590.86 862.71,589.91 864.14,589.46 C866.06,588.85 866.77,586.00 865.00,586.00 C864.45,586.00 864.00,584.85 864.00,583.44 C864.00,581.68 864.39,581.11 865.25,581.60 C865.94,582.00 866.20,581.99 865.84,581.59 C865.48,581.18 865.56,579.52 866.03,577.91 C866.54,576.11 866.51,575.19 865.94,575.54 C865.42,575.86 865.00,574.49 865.00,572.50 C865.00,570.24 865.39,569.12 866.04,569.53 C866.62,569.88 867.74,569.63 868.54,568.96 C869.65,568.05 870.00,568.04 870.00,568.94 C870.00,569.59 870.50,569.81 871.11,569.43 C871.88,568.96 871.80,568.46 870.86,567.80 C869.91,567.14 869.85,566.70 870.63,566.38 C871.39,566.07 871.51,564.77 871.00,562.51 C870.58,560.63 870.49,558.84 870.80,558.53 C871.12,558.22 871.27,555.95 871.14,553.48 C871.00,550.86 871.35,549.00 871.96,549.00 C872.66,549.00 872.79,547.06 872.35,543.34 C871.86,539.18 871.99,537.88 872.84,538.40 C874.27,539.28 874.32,538.46 873.00,535.99 C872.35,534.79 872.34,533.91 872.96,533.52 C873.50,533.19 873.67,531.59 873.34,529.96 C872.94,527.96 873.15,527.00 873.98,527.00 C874.87,527.00 875.14,524.98 874.94,519.75 C874.55,509.42 874.84,505.78 876.00,506.50 C876.63,506.89 877.00,504.66 877.00,500.50 C877.00,496.34 877.37,494.11 878.00,494.50 C878.18,494.61 878.34,494.69 878.47,494.72 C878.49,497.21 878.50,499.80 878.50,502.50 C878.50,535.78 877.54,546.49 872.33,571.46 C851.40,671.81 774.99,750.84 680.00,770.41 C661.30,774.27 653.46,775.58 629.66,776.17 ZM 412.50 774.10 C406.16,775.18 399.96,775.80 390.83,776.16 C391.66,775.58 392.59,774.59 394.01,772.99 C397.93,768.57 400.61,767.79 405.91,769.53 C407.31,769.98 408.08,769.94 407.75,769.41 C407.45,768.91 409.29,768.42 411.85,768.31 C435.52,767.35 435.99,767.29 438.69,764.59 C440.11,763.16 441.69,762.00 442.20,762.00 C442.70,762.00 442.84,761.55 442.50,761.00 C442.14,760.42 443.14,760.00 444.88,760.00 C446.53,760.00 448.16,759.54 448.51,758.98 C448.86,758.42 449.54,758.21 450.02,758.51 C451.15,759.21 456.11,758.00 455.61,757.14 C455.40,756.79 455.63,755.44 456.12,754.15 C456.71,752.58 457.53,751.99 458.56,752.39 C459.41,752.71 461.62,752.35 463.47,751.58 C465.32,750.80 467.06,750.39 467.33,750.67 C468.33,751.67 472.14,748.81 471.62,747.45 C470.30,744.02 475.07,742.73 482.84,744.41 C484.60,744.79 485.04,744.56 484.62,743.46 C484.31,742.66 484.40,742.00 484.81,742.00 C485.22,742.00 486.07,740.65 486.69,739.00 C487.60,736.60 488.42,736.00 490.79,736.00 C493.89,736.00 496.25,734.09 495.94,731.82 C495.48,728.41 497.37,726.75 501.93,726.56 C502.72,726.53 503.74,725.05 504.21,723.27 C505.15,719.66 507.32,718.00 511.12,718.00 C511.73,718.00 512.05,716.99 511.82,715.75 C511.59,714.45 512.17,712.76 513.21,711.75 C514.19,710.79 515.00,710.35 515.00,710.79 C515.00,712.73 518.84,711.65 519.85,709.43 C520.50,708.01 520.56,707.00 520.01,707.00 C518.15,707.00 520.19,704.16 522.84,703.07 C524.32,702.45 526.13,700.61 526.85,698.98 C527.58,697.34 528.61,696.00 529.16,696.00 C529.70,696.00 530.82,695.32 531.65,694.49 C532.48,693.66 533.61,693.26 534.17,693.60 C534.77,693.97 535.10,693.07 534.98,691.36 C534.88,689.79 534.88,688.28 535.00,688.00 C535.12,687.72 535.28,686.38 535.36,685.00 C535.57,681.60 536.75,680.00 539.05,680.00 C541.73,680.00 544.16,673.88 543.39,669.06 C542.95,666.31 543.15,665.32 544.15,665.29 C549.31,665.14 550.77,663.32 550.88,656.93 C551.00,649.63 551.67,646.77 553.48,645.75 C554.32,645.28 555.00,644.28 555.00,643.52 C555.00,642.76 555.66,641.48 556.47,640.68 C557.93,639.21 558.26,637.93 559.56,628.50 C559.94,625.75 560.52,623.05 560.84,622.50 C561.16,621.95 561.31,620.36 561.16,618.95 C561.00,617.39 561.69,615.69 562.95,614.55 C565.38,612.34 565.58,611.00 563.48,611.00 C561.69,611.00 559.66,606.36 560.71,604.67 C561.10,604.03 561.30,602.26 561.14,600.75 C560.95,598.97 561.40,597.78 562.42,597.39 C563.29,597.06 564.00,596.18 564.00,595.43 C564.00,594.69 565.01,593.13 566.25,591.98 L 567.86 590.48 C567.15,615.35 565.68,621.36 562.34,635.50 C553.65,672.17 536.03,702.84 509.03,728.26 C482.97,752.79 452.44,767.29 412.50,774.10 ZM 542.35 776.73 C552.48,776.53 561.43,775.97 562.27,775.13 C563.63,773.77 618.00,773.51 618.00,774.86 C618.00,775.58 620.76,776.11 623.79,776.30 C614.27,776.47 602.43,776.57 587.00,776.67 C571.75,776.78 555.87,776.79 542.35,776.73 ZM 569.46 368.73 C569.50,367.58 569.53,366.95 569.56,366.90 C570.39,365.56 606.72,365.74 607.55,367.09 C608.04,367.87 608.53,367.87 609.31,367.09 C610.95,365.45 612.77,365.77 615.09,368.09 L 617.11 370.11 C611.01,369.73 604.04,369.49 595.81,369.31 ZM 359.64 775.50 C360.10,774.29 362.40,774.00 371.61,774.00 C378.18,774.00 383.00,774.40 383.00,774.95 C383.00,775.38 384.06,775.94 385.52,776.34 C383.06,776.40 380.40,776.46 377.50,776.50 C370.63,776.61 364.51,776.61 358.86,776.48 C359.21,776.24 359.48,775.91 359.64,775.50 ZM 404.33 770.25 C403.39,769.56 401.92,769.05 401.06,769.12 C399.93,769.20 400.01,769.36 401.34,769.71 C402.56,770.02 403.02,770.81 402.70,772.03 C402.28,773.63 402.48,773.72 404.13,772.69 C405.91,771.58 405.92,771.42 404.33,770.25 Z" fill="rgb(2,2,2)"/>
<path d="M 0.00 512.00 L 0.00 0.00 L 512.00 0.00 L 1024.00 0.00 L 1024.00 512.00 L 1024.00 1024.00 L 512.00 1024.00 L 0.00 1024.00 L 0.00 512.00 ZM 412.50 774.10 C452.44,767.29 482.97,752.79 509.03,728.26 C536.03,702.84 553.65,672.17 562.34,635.50 C568.30,610.30 568.28,610.93 568.72,484.61 L 569.12 368.72 L 595.81 369.31 C633.51,370.13 644.98,372.30 665.50,382.47 C679.19,389.26 687.02,395.16 699.21,407.85 C716.79,426.17 729.16,450.37 734.56,476.98 C736.74,487.75 738.74,512.43 737.89,518.00 C737.51,520.47 736.64,527.22 735.97,533.00 C730.04,583.58 696.66,625.46 652.00,638.33 C638.92,642.10 626.70,643.86 604.49,645.17 L 584.13 646.37 L 579.49 658.94 C569.64,685.59 554.30,712.96 537.71,733.50 C529.02,744.26 510.34,762.21 500.20,769.53 L 491.95 775.50 L 510.72 776.28 C521.05,776.71 555.38,776.89 587.00,776.67 C648.68,776.25 653.11,775.95 680.00,770.41 C774.99,750.84 851.40,671.81 872.33,571.46 C877.54,546.49 878.50,535.78 878.50,502.50 C878.50,482.66 878.04,468.26 877.22,462.50 C868.71,402.72 847.33,359.08 805.52,316.13 C766.84,276.40 722.22,251.08 673.19,241.04 C643.10,234.88 640.49,234.75 537.28,234.27 L 443.05 233.83 L 442.74 414.16 C442.45,581.09 442.30,594.97 440.71,600.83 C434.04,625.35 418.48,640.07 394.50,644.55 C381.97,646.89 361.34,646.15 351.50,643.01 C325.60,634.74 312.40,617.53 309.08,587.73 C308.35,581.21 308.00,522.19 308.00,406.04 L 308.00 234.00 L 234.00 234.00 L 160.00 234.00 L 160.01 397.25 C160.02,489.54 160.45,568.92 161.01,579.86 C163.85,636.10 179.31,677.34 210.76,712.50 C235.94,740.65 266.39,759.04 303.50,768.50 C330.19,775.30 345.88,777.00 377.50,776.50 C394.76,776.24 403.50,775.64 412.50,774.10 Z" fill="rgb(254,254,254)"/>
</g>
</svg>